<?xml version="1.0" encoding="utf-8"?>
<!-- Generator: Adobe Illustrator 23.0.6, SVG Export Plug-In . SVG Version: 6.00 Build 0)  -->
<svg version="1.1" id="Layer_1" xmlns="http://www.w3.org/2000/svg" xmlns:xlink="http://www.w3.org/1999/xlink" x="0px" y="0px"
	 viewBox="0 0 542 116" style="enable-background:new 0 0 542 116;" xml:space="preserve">
<style type="text/css">
	.st0{fill:#008AFF;}
	.st1{fill:#0F1D2D;}
	.st2{fill:#0E1D2D;}
	.st3{fill:#667782;}
</style>
<g>
	<g>
		<g id="Logo_6_">
			<g id="Original_6_">
				<g>
					<polygon class="st0" points="339.18,92.04 326.41,71.37 319.98,77.59 319.98,92.04 310.27,92.04 310.27,24.84 319.98,24.84 
						319.98,65.88 338.55,47.63 350.57,47.63 333.27,64.51 350.15,92.04 339.18,92.04 339.18,92.04 					"/>
				</g>
				<g>
					<path class="st0" d="M186.6,40.08c-2.64-4.01-6.96-6.44-13.29-6.44c-7.28,0-10.97,4.22-10.97,9.81c0,4.64,2.53,7.17,8.12,8.97
						l8.55,2.53c10.76,3.27,15.82,8.86,15.82,17.62c0,12.13-9.18,19.73-23,19.73c-14.66,0-20.47-6.96-23.1-12.24l7.49-5.8
						c2.32,4.75,5.8,8.97,15.61,8.97c7.91,0,12.03-4.01,12.03-9.81c0-4.96-3.17-7.49-8.65-9.18l-8.55-2.53
						c-10.66-3.27-15.4-9.28-15.4-17.62c0-10.13,6.65-19.52,21.94-19.52c10.97,0,17.51,4.64,20.78,9.71L186.6,40.08L186.6,40.08
						L186.6,40.08z"/>
				</g>
				<g>
					<path class="st0" d="M212.28,77.54c0,3.69,1.79,5.7,5.38,5.7c1.79,0,4.01-0.53,5.7-1.16l0.53,8.55
						c-2.22,0.84-5.91,1.69-9.28,1.69c-8.65,0-12.13-5.59-12.13-13.5V55.28h-8.12v-7.38l8.12-0.95V36.3l9.81-1.92v12.55h10.87v8.33
						h-10.87V77.54L212.28,77.54L212.28,77.54z"/>
				</g>
				<g>
					<path class="st0" d="M242.92,84.71c4.32,0,8.12-2,10.55-4.54v-9.5l-6.12,0.84c-7.07,0.95-11.08,3.17-11.08,7.6
						C236.38,82.71,238.6,84.71,242.92,84.71L242.92,84.71L242.92,84.71z M254.11,91.36v-5.38c-2.85,3.17-7.49,6.44-14.45,6.44
						c-8.12,0-13.29-4.85-13.29-12.77c0-9.39,8.23-13.61,20.99-14.56l6.22-0.63v-3.48c0-4.43-1.9-6.96-8.12-6.96
						c-5.49,0-8.12,1.9-8.12,4.75v2.11h-8.55c-0.11-0.95-0.21-2-0.21-3.06c0-6.86,6.22-11.82,17.41-11.82
						c10.76,0,17.3,4.64,17.3,14.77v30.6H254.11L254.11,91.36L254.11,91.36z"/>
				</g>
				<g>
					<path class="st0" d="M288.76,45.99c7.91,0,14.03,3.16,17.2,9.39l-6.96,4.96c-2-3.59-5.06-5.7-9.5-5.7
						c-7.91,0-10.76,6.12-10.76,14.45c0,8.33,2.95,14.45,10.76,14.45c4.43,0,7.6-2.11,9.6-5.7l6.86,4.96
						c-3.17,6.22-9.39,9.39-17.2,9.39c-14.24,0-20.15-10.44-20.15-23.21C268.71,56.44,274.62,45.99,288.76,45.99L288.76,45.99
						L288.76,45.99z"/>
				</g>
				<g>
					<path class="st1" d="M392.52,40.08c-2.64-4.01-6.96-6.44-13.29-6.44c-7.28,0-10.97,4.22-10.97,9.81c0,4.64,2.53,7.17,8.12,8.97
						l8.55,2.53c10.76,3.27,15.83,8.86,15.83,17.62c0,12.13-9.18,19.73-23,19.73c-14.66,0-20.47-6.96-23.11-12.24l7.49-5.8
						c2.32,4.75,5.8,8.97,15.61,8.97c7.91,0,12.03-4.01,12.03-9.81c0-4.96-3.17-7.49-8.65-9.18l-8.55-2.53
						c-10.66-3.27-15.4-9.28-15.4-17.62c0-10.13,6.65-19.52,21.94-19.52c10.97,0,17.51,4.64,20.78,9.71L392.52,40.08L392.52,40.08
						L392.52,40.08z"/>
				</g>
				<g>
					<path class="st1" d="M418.21,77.54c0,3.69,1.79,5.7,5.38,5.7c1.79,0,4.01-0.53,5.7-1.16l0.53,8.55
						c-2.22,0.84-5.91,1.69-9.28,1.69c-8.65,0-12.13-5.59-12.13-13.5V55.28h-8.12v-7.38l8.12-0.95V36.31l9.81-1.92v12.55h10.87v8.33
						h-10.87V77.54L418.21,77.54L418.21,77.54z"/>
				</g>
				<g>
					<path class="st1" d="M448.85,84.71c4.33,0,8.12-2,10.55-4.54v-9.5l-6.12,0.84c-7.07,0.95-11.08,3.17-11.08,7.6
						C442.21,82.71,444.53,84.71,448.85,84.71L448.85,84.71L448.85,84.71z M460.04,91.36v-5.38c-2.85,3.17-7.49,6.44-14.45,6.44
						c-8.12,0-13.29-4.85-13.29-12.77c0-9.39,8.23-13.61,20.99-14.56l6.22-0.63v-3.48c0-4.43-1.9-6.96-8.12-6.96
						c-5.49,0-8.12,1.9-8.12,4.75v2.11h-8.55c-0.11-0.95-0.21-2-0.21-3.06c0-6.86,6.22-11.82,17.41-11.82
						c10.76,0,17.3,4.64,17.3,14.77v30.6H460.04L460.04,91.36L460.04,91.36z"/>
				</g>
				<g>
					<path class="st1" d="M490.47,77.54c0,3.69,1.79,5.7,5.38,5.7c1.79,0,4.01-0.53,5.7-1.16l0.53,8.55
						c-2.21,0.84-5.91,1.69-9.28,1.69c-8.65,0-12.13-5.59-12.13-13.5V55.28h-8.12v-7.38l8.12-0.95V36.31l9.81-1.92v12.55h10.87v8.33
						h-10.87V77.54L490.47,77.54L490.47,77.54z"/>
				</g>
				<g>
					<path class="st1" d="M532.82,64.98c0.11-0.63,0.11-1.27,0.11-1.69c0-5.91-3.69-9.39-9.08-9.39c-6.96,0-9.81,4.85-10.23,11.08
						H532.82L532.82,64.98L532.82,64.98z M536.41,79.54l4.64,6.44c-3.16,3.38-9.28,6.44-16.25,6.44c-14.88,0-21.1-9.71-21.1-23.21
						c0-12.77,6.64-23.21,20.15-23.21c13.09,0,18.15,9.39,18.15,18.99c0,2.22-0.21,5.49-0.63,7.28h-27.75
						c0.21,7.07,3.69,11.71,11.18,11.71C528.6,83.87,533.03,82.6,536.41,79.54L536.41,79.54L536.41,79.54z"/>
				</g>
			</g>
		</g>
	</g>
	<g>
		<g>
			<g>
				<path class="st2" d="M21.43,35.56l36.75-21.22l36.75,21.22L60.45,55.43c-1.4,0.83-3.16,0.83-4.55,0L21.43,35.56z"/>
			</g>
			<g>
				<g>
					<path class="st2" d="M55.9,64.23L31.88,50.36l-10.45,6.06L55.9,76.29c1.4,0.83,3.16,0.83,4.55,0l34.47-19.87l-10.45-6.06
						L60.45,64.23C59.05,65.06,57.29,65.06,55.9,64.23z"/>
				</g>
				<g>
					<path class="st2" d="M55.9,85.55L31.88,71.68l-10.45,6.06L55.9,97.61c1.4,0.83,3.16,0.83,4.55,0l34.47-19.87l-10.45-6.06
						L60.5,85.55C59.05,86.38,57.29,86.38,55.9,85.55z"/>
				</g>
				<g>
					<path class="st3" d="M0,57.86c0,10.25,2.69,19.87,7.35,28.21l6.52-3.78v-5.95c0-1.6,0.88-3.11,2.28-3.93l8.23-4.76l-7.97-4.61
						c-1.4-0.83-2.28-2.33-2.28-3.93v-4.14c0-1.6,0.83-3.16,2.28-3.93l7.92-4.66l-7.87-4.55c-1.4-0.83-2.28-2.33-2.28-3.93v-3.62
						c0-1.66,0.88-3.16,2.28-3.99L53.98,8.7V0.16C23.86,2.17,0,27.28,0,57.86z"/>
				</g>
				<g>
					<path class="st3" d="M116.09,57.76c0,10.25-2.69,19.87-7.35,28.21l-6.52-3.78v-5.95c0-1.6-0.88-3.11-2.28-3.93l-8.23-4.76
						l7.97-4.61c1.4-0.83,2.28-2.33,2.28-3.93v-4.14c0-1.6-0.83-3.16-2.28-3.93l-7.92-4.66l7.87-4.55c1.4-0.83,2.28-2.33,2.28-3.93
						v-3.62c0-1.66-0.88-3.16-2.28-3.99L62.11,8.59V0C92.23,2.02,116.09,27.17,116.09,57.76z"/>
				</g>
				<g>
					<g>
						<path class="st3" d="M58.02,115.68c19.05,0,35.97-9.21,46.53-23.39l-9.94-5.69L60.5,106.2c-1.4,0.83-3.16,0.83-4.55,0
							L21.48,86.38L15.16,90l-0.72,0.41l0,0l-3.05,1.76C22,106.41,38.92,115.68,58.02,115.68z"/>
					</g>
				</g>
			</g>
		</g>
	</g>
</g>
</svg>
